<mxfile host="app.diagrams.net" agent="Mozilla/5.0 (Windows NT 10.0; Win64; x64) AppleWebKit/537.36 (KHTML, like Gecko) Chrome/127.0.0.0 Safari/537.36 OPR/113.0.0.0 (Edition std-1)" version="24.7.17">
  <diagram name="Página-1" id="AXTHoC6TX2V9ULVOE81Y">
    <mxGraphModel dx="1121" dy="599" grid="1" gridSize="10" guides="1" tooltips="1" connect="1" arrows="1" fold="1" page="1" pageScale="1" pageWidth="827" pageHeight="1169" math="0" shadow="0">
      <root>
        <mxCell id="0" />
        <mxCell id="1" parent="0" />
        <mxCell id="d-66F8NWOFjjkGd9HGMa-5" value="" style="group" vertex="1" connectable="0" parent="1">
          <mxGeometry x="10" y="10" width="120" height="80" as="geometry" />
        </mxCell>
        <mxCell id="d-66F8NWOFjjkGd9HGMa-2" value="" style="ellipse;whiteSpace=wrap;html=1;" vertex="1" parent="d-66F8NWOFjjkGd9HGMa-5">
          <mxGeometry width="120" height="80" as="geometry" />
        </mxCell>
        <mxCell id="d-66F8NWOFjjkGd9HGMa-3" value="Nome" style="text;html=1;align=center;verticalAlign=middle;whiteSpace=wrap;rounded=0;" vertex="1" parent="d-66F8NWOFjjkGd9HGMa-5">
          <mxGeometry x="10" y="25" width="100" height="30" as="geometry" />
        </mxCell>
        <mxCell id="d-66F8NWOFjjkGd9HGMa-6" value="" style="group" vertex="1" connectable="0" parent="1">
          <mxGeometry x="10" y="90" width="120" height="80" as="geometry" />
        </mxCell>
        <mxCell id="d-66F8NWOFjjkGd9HGMa-7" value="" style="ellipse;whiteSpace=wrap;html=1;" vertex="1" parent="d-66F8NWOFjjkGd9HGMa-6">
          <mxGeometry width="120" height="80" as="geometry" />
        </mxCell>
        <mxCell id="d-66F8NWOFjjkGd9HGMa-8" value="CPF" style="text;html=1;align=center;verticalAlign=middle;whiteSpace=wrap;rounded=0;" vertex="1" parent="d-66F8NWOFjjkGd9HGMa-6">
          <mxGeometry x="10" y="25" width="100" height="30" as="geometry" />
        </mxCell>
        <mxCell id="d-66F8NWOFjjkGd9HGMa-9" value="" style="group" vertex="1" connectable="0" parent="1">
          <mxGeometry x="10" y="170" width="120" height="80" as="geometry" />
        </mxCell>
        <mxCell id="d-66F8NWOFjjkGd9HGMa-10" value="" style="ellipse;whiteSpace=wrap;html=1;" vertex="1" parent="d-66F8NWOFjjkGd9HGMa-9">
          <mxGeometry width="120" height="80" as="geometry" />
        </mxCell>
        <mxCell id="d-66F8NWOFjjkGd9HGMa-11" value="Endereço" style="text;html=1;align=center;verticalAlign=middle;whiteSpace=wrap;rounded=0;" vertex="1" parent="d-66F8NWOFjjkGd9HGMa-9">
          <mxGeometry x="10" y="25" width="100" height="30" as="geometry" />
        </mxCell>
        <mxCell id="d-66F8NWOFjjkGd9HGMa-12" value="" style="group" vertex="1" connectable="0" parent="1">
          <mxGeometry x="10" y="250" width="120" height="80" as="geometry" />
        </mxCell>
        <mxCell id="d-66F8NWOFjjkGd9HGMa-13" value="" style="ellipse;whiteSpace=wrap;html=1;" vertex="1" parent="d-66F8NWOFjjkGd9HGMa-12">
          <mxGeometry width="120" height="80" as="geometry" />
        </mxCell>
        <mxCell id="d-66F8NWOFjjkGd9HGMa-14" value="Telefone" style="text;html=1;align=center;verticalAlign=middle;whiteSpace=wrap;rounded=0;" vertex="1" parent="d-66F8NWOFjjkGd9HGMa-12">
          <mxGeometry x="10" y="25" width="100" height="30" as="geometry" />
        </mxCell>
        <mxCell id="d-66F8NWOFjjkGd9HGMa-15" value="" style="group" vertex="1" connectable="0" parent="1">
          <mxGeometry x="10" y="330" width="120" height="80" as="geometry" />
        </mxCell>
        <mxCell id="d-66F8NWOFjjkGd9HGMa-16" value="" style="ellipse;whiteSpace=wrap;html=1;" vertex="1" parent="d-66F8NWOFjjkGd9HGMa-15">
          <mxGeometry width="120" height="80" as="geometry" />
        </mxCell>
        <mxCell id="d-66F8NWOFjjkGd9HGMa-17" value="E-mail" style="text;html=1;align=center;verticalAlign=middle;whiteSpace=wrap;rounded=0;" vertex="1" parent="d-66F8NWOFjjkGd9HGMa-15">
          <mxGeometry x="10" y="25" width="100" height="30" as="geometry" />
        </mxCell>
        <mxCell id="d-66F8NWOFjjkGd9HGMa-18" value="" style="endArrow=none;html=1;rounded=0;exitX=1;exitY=0.5;exitDx=0;exitDy=0;entryX=0;entryY=0.5;entryDx=0;entryDy=0;" edge="1" parent="1" source="d-66F8NWOFjjkGd9HGMa-2" target="d-66F8NWOFjjkGd9HGMa-1">
          <mxGeometry width="50" height="50" relative="1" as="geometry">
            <mxPoint x="320" y="240" as="sourcePoint" />
            <mxPoint x="370" y="190" as="targetPoint" />
            <Array as="points">
              <mxPoint x="160" y="50" />
            </Array>
          </mxGeometry>
        </mxCell>
        <mxCell id="d-66F8NWOFjjkGd9HGMa-21" value="" style="group" vertex="1" connectable="0" parent="1">
          <mxGeometry x="190" y="20" width="120" height="60" as="geometry" />
        </mxCell>
        <mxCell id="d-66F8NWOFjjkGd9HGMa-1" value="" style="rounded=0;whiteSpace=wrap;html=1;" vertex="1" parent="d-66F8NWOFjjkGd9HGMa-21">
          <mxGeometry width="120" height="60" as="geometry" />
        </mxCell>
        <mxCell id="d-66F8NWOFjjkGd9HGMa-4" value="Cliente" style="text;html=1;align=center;verticalAlign=middle;whiteSpace=wrap;rounded=0;" vertex="1" parent="d-66F8NWOFjjkGd9HGMa-21">
          <mxGeometry x="30" y="15" width="60" height="30" as="geometry" />
        </mxCell>
        <mxCell id="d-66F8NWOFjjkGd9HGMa-22" value="" style="group" vertex="1" connectable="0" parent="1">
          <mxGeometry x="500" y="20" width="120" height="60" as="geometry" />
        </mxCell>
        <mxCell id="d-66F8NWOFjjkGd9HGMa-23" value="" style="rounded=0;whiteSpace=wrap;html=1;" vertex="1" parent="d-66F8NWOFjjkGd9HGMa-22">
          <mxGeometry width="120" height="60" as="geometry" />
        </mxCell>
        <mxCell id="d-66F8NWOFjjkGd9HGMa-24" value="Veículos" style="text;html=1;align=center;verticalAlign=middle;whiteSpace=wrap;rounded=0;" vertex="1" parent="d-66F8NWOFjjkGd9HGMa-22">
          <mxGeometry x="30" y="15" width="60" height="30" as="geometry" />
        </mxCell>
        <mxCell id="d-66F8NWOFjjkGd9HGMa-25" value="" style="group" vertex="1" connectable="0" parent="1">
          <mxGeometry x="354" y="10" width="120" height="80" as="geometry" />
        </mxCell>
        <mxCell id="d-66F8NWOFjjkGd9HGMa-26" value="" style="ellipse;whiteSpace=wrap;html=1;" vertex="1" parent="d-66F8NWOFjjkGd9HGMa-25">
          <mxGeometry width="120" height="80" as="geometry" />
        </mxCell>
        <mxCell id="d-66F8NWOFjjkGd9HGMa-27" value="Marca" style="text;html=1;align=center;verticalAlign=middle;whiteSpace=wrap;rounded=0;" vertex="1" parent="d-66F8NWOFjjkGd9HGMa-25">
          <mxGeometry x="10" y="25" width="100" height="30" as="geometry" />
        </mxCell>
        <mxCell id="d-66F8NWOFjjkGd9HGMa-29" value="" style="group" vertex="1" connectable="0" parent="1">
          <mxGeometry x="354" y="90" width="120" height="80" as="geometry" />
        </mxCell>
        <mxCell id="d-66F8NWOFjjkGd9HGMa-30" value="" style="ellipse;whiteSpace=wrap;html=1;" vertex="1" parent="d-66F8NWOFjjkGd9HGMa-29">
          <mxGeometry width="120" height="80" as="geometry" />
        </mxCell>
        <mxCell id="d-66F8NWOFjjkGd9HGMa-31" value="Placa" style="text;html=1;align=center;verticalAlign=middle;whiteSpace=wrap;rounded=0;" vertex="1" parent="d-66F8NWOFjjkGd9HGMa-29">
          <mxGeometry x="10" y="25" width="100" height="30" as="geometry" />
        </mxCell>
        <mxCell id="d-66F8NWOFjjkGd9HGMa-32" value="" style="group" vertex="1" connectable="0" parent="1">
          <mxGeometry x="354" y="170" width="120" height="80" as="geometry" />
        </mxCell>
        <mxCell id="d-66F8NWOFjjkGd9HGMa-33" value="" style="ellipse;whiteSpace=wrap;html=1;" vertex="1" parent="d-66F8NWOFjjkGd9HGMa-32">
          <mxGeometry width="120" height="80" as="geometry" />
        </mxCell>
        <mxCell id="d-66F8NWOFjjkGd9HGMa-34" value="Ano de Fabricação" style="text;html=1;align=center;verticalAlign=middle;whiteSpace=wrap;rounded=0;" vertex="1" parent="d-66F8NWOFjjkGd9HGMa-32">
          <mxGeometry x="10" y="25" width="100" height="30" as="geometry" />
        </mxCell>
        <mxCell id="d-66F8NWOFjjkGd9HGMa-35" value="" style="group" vertex="1" connectable="0" parent="1">
          <mxGeometry x="354" y="250" width="120" height="80" as="geometry" />
        </mxCell>
        <mxCell id="d-66F8NWOFjjkGd9HGMa-36" value="" style="ellipse;whiteSpace=wrap;html=1;" vertex="1" parent="d-66F8NWOFjjkGd9HGMa-35">
          <mxGeometry width="120" height="80" as="geometry" />
        </mxCell>
        <mxCell id="d-66F8NWOFjjkGd9HGMa-37" value="Modelo" style="text;html=1;align=center;verticalAlign=middle;whiteSpace=wrap;rounded=0;" vertex="1" parent="d-66F8NWOFjjkGd9HGMa-35">
          <mxGeometry x="10" y="25" width="100" height="30" as="geometry" />
        </mxCell>
        <mxCell id="d-66F8NWOFjjkGd9HGMa-39" value="" style="group" vertex="1" connectable="0" parent="1">
          <mxGeometry x="354" y="330" width="120" height="80" as="geometry" />
        </mxCell>
        <mxCell id="d-66F8NWOFjjkGd9HGMa-40" value="" style="ellipse;whiteSpace=wrap;html=1;" vertex="1" parent="d-66F8NWOFjjkGd9HGMa-39">
          <mxGeometry width="120" height="80" as="geometry" />
        </mxCell>
        <mxCell id="d-66F8NWOFjjkGd9HGMa-41" value="Categoria" style="text;html=1;align=center;verticalAlign=middle;whiteSpace=wrap;rounded=0;" vertex="1" parent="d-66F8NWOFjjkGd9HGMa-39">
          <mxGeometry x="10" y="25" width="100" height="30" as="geometry" />
        </mxCell>
        <mxCell id="d-66F8NWOFjjkGd9HGMa-42" value="" style="group" vertex="1" connectable="0" parent="1">
          <mxGeometry x="354" y="410" width="120" height="80" as="geometry" />
        </mxCell>
        <mxCell id="d-66F8NWOFjjkGd9HGMa-43" value="" style="ellipse;whiteSpace=wrap;html=1;" vertex="1" parent="d-66F8NWOFjjkGd9HGMa-42">
          <mxGeometry width="120" height="80" as="geometry" />
        </mxCell>
        <mxCell id="d-66F8NWOFjjkGd9HGMa-44" value="Status" style="text;html=1;align=center;verticalAlign=middle;whiteSpace=wrap;rounded=0;" vertex="1" parent="d-66F8NWOFjjkGd9HGMa-42">
          <mxGeometry x="10" y="25" width="100" height="30" as="geometry" />
        </mxCell>
        <mxCell id="d-66F8NWOFjjkGd9HGMa-45" value="" style="endArrow=none;html=1;rounded=0;entryX=0;entryY=0.5;entryDx=0;entryDy=0;exitX=1;exitY=0.5;exitDx=0;exitDy=0;" edge="1" parent="1" source="d-66F8NWOFjjkGd9HGMa-26" target="d-66F8NWOFjjkGd9HGMa-23">
          <mxGeometry width="50" height="50" relative="1" as="geometry">
            <mxPoint x="440" y="90" as="sourcePoint" />
            <mxPoint x="490" y="40" as="targetPoint" />
          </mxGeometry>
        </mxCell>
        <mxCell id="d-66F8NWOFjjkGd9HGMa-46" value="" style="endArrow=none;html=1;rounded=0;entryX=0.5;entryY=1;entryDx=0;entryDy=0;exitX=0.5;exitY=0;exitDx=0;exitDy=0;" edge="1" parent="1" source="d-66F8NWOFjjkGd9HGMa-54" target="d-66F8NWOFjjkGd9HGMa-1">
          <mxGeometry width="50" height="50" relative="1" as="geometry">
            <mxPoint x="200" y="290" as="sourcePoint" />
            <mxPoint x="200" y="100" as="targetPoint" />
            <Array as="points" />
          </mxGeometry>
        </mxCell>
        <mxCell id="d-66F8NWOFjjkGd9HGMa-47" value="" style="group" vertex="1" connectable="0" parent="1">
          <mxGeometry x="980" y="10" width="120" height="80" as="geometry" />
        </mxCell>
        <mxCell id="d-66F8NWOFjjkGd9HGMa-48" value="" style="ellipse;whiteSpace=wrap;html=1;" vertex="1" parent="d-66F8NWOFjjkGd9HGMa-47">
          <mxGeometry width="120" height="80" as="geometry" />
        </mxCell>
        <mxCell id="d-66F8NWOFjjkGd9HGMa-49" value="Marca" style="text;html=1;align=center;verticalAlign=middle;whiteSpace=wrap;rounded=0;" vertex="1" parent="d-66F8NWOFjjkGd9HGMa-47">
          <mxGeometry x="10" y="25" width="100" height="30" as="geometry" />
        </mxCell>
        <mxCell id="d-66F8NWOFjjkGd9HGMa-50" value="" style="group" vertex="1" connectable="0" parent="1">
          <mxGeometry x="500" y="680" width="120" height="60" as="geometry" />
        </mxCell>
        <mxCell id="d-66F8NWOFjjkGd9HGMa-51" value="" style="rounded=0;whiteSpace=wrap;html=1;" vertex="1" parent="d-66F8NWOFjjkGd9HGMa-50">
          <mxGeometry width="120" height="60" as="geometry" />
        </mxCell>
        <mxCell id="d-66F8NWOFjjkGd9HGMa-52" value="Contrato de Locação" style="text;html=1;align=center;verticalAlign=middle;whiteSpace=wrap;rounded=0;" vertex="1" parent="d-66F8NWOFjjkGd9HGMa-50">
          <mxGeometry y="15" width="120" height="30" as="geometry" />
        </mxCell>
        <mxCell id="d-66F8NWOFjjkGd9HGMa-53" value="" style="rhombus;whiteSpace=wrap;html=1;" vertex="1" parent="1">
          <mxGeometry x="520" y="480" width="80" height="80" as="geometry" />
        </mxCell>
        <mxCell id="d-66F8NWOFjjkGd9HGMa-54" value="" style="rhombus;whiteSpace=wrap;html=1;" vertex="1" parent="1">
          <mxGeometry x="210" y="480" width="80" height="80" as="geometry" />
        </mxCell>
        <mxCell id="d-66F8NWOFjjkGd9HGMa-55" value="" style="endArrow=none;html=1;rounded=0;entryX=0.5;entryY=1;entryDx=0;entryDy=0;exitX=0.5;exitY=0;exitDx=0;exitDy=0;" edge="1" parent="1">
          <mxGeometry width="50" height="50" relative="1" as="geometry">
            <mxPoint x="559.3299999999999" y="480" as="sourcePoint" />
            <mxPoint x="559.3299999999999" y="80" as="targetPoint" />
            <Array as="points" />
          </mxGeometry>
        </mxCell>
        <mxCell id="d-66F8NWOFjjkGd9HGMa-56" value="" style="group" vertex="1" connectable="0" parent="1">
          <mxGeometry x="500" y="780" width="120" height="80" as="geometry" />
        </mxCell>
        <mxCell id="d-66F8NWOFjjkGd9HGMa-57" value="" style="ellipse;whiteSpace=wrap;html=1;" vertex="1" parent="d-66F8NWOFjjkGd9HGMa-56">
          <mxGeometry width="120" height="80" as="geometry" />
        </mxCell>
        <mxCell id="d-66F8NWOFjjkGd9HGMa-58" value="Data de início" style="text;html=1;align=center;verticalAlign=middle;whiteSpace=wrap;rounded=0;" vertex="1" parent="d-66F8NWOFjjkGd9HGMa-56">
          <mxGeometry x="10" y="25" width="100" height="30" as="geometry" />
        </mxCell>
        <mxCell id="d-66F8NWOFjjkGd9HGMa-59" value="" style="group" vertex="1" connectable="0" parent="1">
          <mxGeometry x="500" y="860" width="120" height="80" as="geometry" />
        </mxCell>
        <mxCell id="d-66F8NWOFjjkGd9HGMa-60" value="" style="ellipse;whiteSpace=wrap;html=1;" vertex="1" parent="d-66F8NWOFjjkGd9HGMa-59">
          <mxGeometry width="120" height="80" as="geometry" />
        </mxCell>
        <mxCell id="d-66F8NWOFjjkGd9HGMa-61" value="Data de término" style="text;html=1;align=center;verticalAlign=middle;whiteSpace=wrap;rounded=0;" vertex="1" parent="d-66F8NWOFjjkGd9HGMa-59">
          <mxGeometry x="10" y="25" width="100" height="30" as="geometry" />
        </mxCell>
        <mxCell id="d-66F8NWOFjjkGd9HGMa-62" value="" style="group" vertex="1" connectable="0" parent="1">
          <mxGeometry x="500" y="940" width="120" height="80" as="geometry" />
        </mxCell>
        <mxCell id="d-66F8NWOFjjkGd9HGMa-63" value="" style="ellipse;whiteSpace=wrap;html=1;" vertex="1" parent="d-66F8NWOFjjkGd9HGMa-62">
          <mxGeometry width="120" height="80" as="geometry" />
        </mxCell>
        <mxCell id="d-66F8NWOFjjkGd9HGMa-64" value="Valor" style="text;html=1;align=center;verticalAlign=middle;whiteSpace=wrap;rounded=0;" vertex="1" parent="d-66F8NWOFjjkGd9HGMa-62">
          <mxGeometry x="10" y="25" width="100" height="30" as="geometry" />
        </mxCell>
        <mxCell id="d-66F8NWOFjjkGd9HGMa-65" value="" style="endArrow=none;html=1;rounded=0;exitX=0.5;exitY=1;exitDx=0;exitDy=0;entryX=0;entryY=0.5;entryDx=0;entryDy=0;" edge="1" parent="1" source="d-66F8NWOFjjkGd9HGMa-54" target="d-66F8NWOFjjkGd9HGMa-52">
          <mxGeometry width="50" height="50" relative="1" as="geometry">
            <mxPoint x="480" y="820" as="sourcePoint" />
            <mxPoint x="530" y="770" as="targetPoint" />
            <Array as="points">
              <mxPoint x="250" y="710" />
            </Array>
          </mxGeometry>
        </mxCell>
        <mxCell id="d-66F8NWOFjjkGd9HGMa-66" value="" style="endArrow=none;html=1;rounded=0;entryX=0.5;entryY=1;entryDx=0;entryDy=0;exitX=0.5;exitY=0;exitDx=0;exitDy=0;" edge="1" parent="1" source="d-66F8NWOFjjkGd9HGMa-51" target="d-66F8NWOFjjkGd9HGMa-53">
          <mxGeometry width="50" height="50" relative="1" as="geometry">
            <mxPoint x="480" y="690" as="sourcePoint" />
            <mxPoint x="530" y="640" as="targetPoint" />
          </mxGeometry>
        </mxCell>
        <mxCell id="d-66F8NWOFjjkGd9HGMa-67" value="" style="endArrow=none;html=1;rounded=0;exitX=0.5;exitY=0;exitDx=0;exitDy=0;entryX=0.5;entryY=1;entryDx=0;entryDy=0;" edge="1" parent="1" source="d-66F8NWOFjjkGd9HGMa-57" target="d-66F8NWOFjjkGd9HGMa-51">
          <mxGeometry width="50" height="50" relative="1" as="geometry">
            <mxPoint x="480" y="690" as="sourcePoint" />
            <mxPoint x="530" y="640" as="targetPoint" />
          </mxGeometry>
        </mxCell>
        <mxCell id="d-66F8NWOFjjkGd9HGMa-68" value="" style="group" vertex="1" connectable="0" parent="1">
          <mxGeometry x="780" y="20" width="120" height="60" as="geometry" />
        </mxCell>
        <mxCell id="d-66F8NWOFjjkGd9HGMa-69" value="" style="rounded=0;whiteSpace=wrap;html=1;" vertex="1" parent="d-66F8NWOFjjkGd9HGMa-68">
          <mxGeometry width="120" height="60" as="geometry" />
        </mxCell>
        <mxCell id="d-66F8NWOFjjkGd9HGMa-70" value="Manutenção dos Veículos" style="text;html=1;align=center;verticalAlign=middle;whiteSpace=wrap;rounded=0;" vertex="1" parent="d-66F8NWOFjjkGd9HGMa-68">
          <mxGeometry y="15" width="120" height="30" as="geometry" />
        </mxCell>
        <mxCell id="d-66F8NWOFjjkGd9HGMa-71" value="" style="endArrow=none;html=1;rounded=0;exitX=1;exitY=0.5;exitDx=0;exitDy=0;entryX=0;entryY=0.5;entryDx=0;entryDy=0;" edge="1" parent="1" source="d-66F8NWOFjjkGd9HGMa-69" target="d-66F8NWOFjjkGd9HGMa-48">
          <mxGeometry width="50" height="50" relative="1" as="geometry">
            <mxPoint x="480" y="290" as="sourcePoint" />
            <mxPoint x="530" y="240" as="targetPoint" />
          </mxGeometry>
        </mxCell>
        <mxCell id="d-66F8NWOFjjkGd9HGMa-72" value="" style="rhombus;whiteSpace=wrap;html=1;" vertex="1" parent="1">
          <mxGeometry x="660" y="10" width="80" height="80" as="geometry" />
        </mxCell>
        <mxCell id="d-66F8NWOFjjkGd9HGMa-73" value="" style="endArrow=none;html=1;rounded=0;exitX=1;exitY=0.5;exitDx=0;exitDy=0;entryX=0;entryY=0.5;entryDx=0;entryDy=0;" edge="1" parent="1" source="d-66F8NWOFjjkGd9HGMa-23" target="d-66F8NWOFjjkGd9HGMa-72">
          <mxGeometry width="50" height="50" relative="1" as="geometry">
            <mxPoint x="640" y="30" as="sourcePoint" />
            <mxPoint x="690" y="-20" as="targetPoint" />
          </mxGeometry>
        </mxCell>
        <mxCell id="d-66F8NWOFjjkGd9HGMa-74" value="" style="endArrow=none;html=1;rounded=0;exitX=1;exitY=0.5;exitDx=0;exitDy=0;entryX=0;entryY=0.5;entryDx=0;entryDy=0;" edge="1" parent="1" source="d-66F8NWOFjjkGd9HGMa-72" target="d-66F8NWOFjjkGd9HGMa-69">
          <mxGeometry width="50" height="50" relative="1" as="geometry">
            <mxPoint x="640" y="30" as="sourcePoint" />
            <mxPoint x="690" y="-20" as="targetPoint" />
          </mxGeometry>
        </mxCell>
      </root>
    </mxGraphModel>
  </diagram>
</mxfile>
